<svg xmlns="http://www.w3.org/2000/svg" xmlns:xlink="http://www.w3.org/1999/xlink" viewBox="40 0 241.53 232.05"><defs><style>.cls-1{fill:url(#linear-gradient);}</style><linearGradient id="linear-gradient" x1="32.57" y1="150.78" x2="154.32" y2="173.89" gradientTransform="matrix(1.9, 0.03, 0.03, 1.77, -62.05, -170.52)" gradientUnits="userSpaceOnUse"><stop offset="0" stop-color="#bb3393"/><stop offset="1" stop-color="#f0c2da"/></linearGradient></defs><g id="Layer_2" data-name="Layer 2"><g id="Layer_1-2" data-name="Layer 1"><path class="cls-1" d="M188.07,210.78l-58.42,18.37a63.11,63.11,0,0,1-58.55-11.1L23.46,179.58A63,63,0,0,1,1.11,118.75l9.29-49A63.09,63.09,0,0,1,53.46,21.27L111.88,2.9A63.11,63.11,0,0,1,170.43,14l47.64,38.47a63.07,63.07,0,0,1,22.35,60.83l-9.29,49.05A63.09,63.09,0,0,1,188.07,210.78Z"/></g></g></svg>